HIERARCHY
ROOT Hips
{
    OFFSET 0.000000 0.000000 0.000000
    CHANNELS 6 Xposition Yposition Zposition Zrotation Xrotation Yrotation
    JOINT Spine
    {
        OFFSET -0.000000 14.517291 0.000000
        CHANNELS 3 Zrotation Xrotation Yrotation
        JOINT Spine1
        {
            OFFSET -0.000000 37.558300 0.000000
            CHANNELS 3 Zrotation Xrotation Yrotation
            JOINT Neck
            {
                OFFSET -0.000000 37.404057 3.400369
                CHANNELS 3 Zrotation Xrotation Yrotation
                JOINT Head
                {
                    OFFSET -0.000000 24.785618 -3.540803
                    CHANNELS 3 Zrotation Xrotation Yrotation
                    End Site
                    {
                        OFFSET -0.000000 35.408028 0.000000
                    }
                }
            }
            JOINT LeftShoulder
            {
                OFFSET 6.992933 33.973492 -0.192664
                CHANNELS 3 Zrotation Xrotation Yrotation
                JOINT LeftArm
                {
                    OFFSET 21.527611 0.000000 0.000000
                    CHANNELS 3 Zrotation Xrotation Yrotation
                    JOINT LeftForeArm
                    {
                        OFFSET 56.353916 0.000000 0.000000
                        CHANNELS 3 Zrotation Xrotation Yrotation
                        JOINT LeftHand
                        {
                            OFFSET 47.774071 0.000000 0.000000
                            CHANNELS 3 Zrotation Xrotation Yrotation
                            End Site
                            {
                                OFFSET 26.556021 0.000000 0.000000
                            }
                        }
                    }
                }
            }
            JOINT RightShoulder
            {
                OFFSET -7.065357 33.973492 -0.192664
                CHANNELS 3 Zrotation Xrotation Yrotation
                JOINT RightArm
                {
                    OFFSET -21.527611 0.000000 0.000000
                    CHANNELS 3 Zrotation Xrotation Yrotation
                    JOINT RightForeArm
                    {
                        OFFSET -56.353916 0.000000 0.000000
                        CHANNELS 3 Zrotation Xrotation Yrotation
                        JOINT RightHand
                        {
                            OFFSET -47.774071 0.000000 0.000000
                            CHANNELS 3 Zrotation Xrotation Yrotation
                            End Site
                            {
                                OFFSET -26.556021 0.000000 0.000000
                            }
                        }
                    }
                }
            }
        }
    }
    JOINT LeftUpLeg
    {
        OFFSET 17.704014 0.000000 0.000000
        CHANNELS 3 Zrotation Xrotation Yrotation
        JOINT LeftLeg
        {
            OFFSET -0.000000 -81.181816 0.000000
            CHANNELS 3 Zrotation Xrotation Yrotation
            JOINT LeftFoot
            {
                OFFSET -0.000000 -62.821102 0.000000
                CHANNELS 3 Zrotation Xrotation Yrotation
                JOINT LeftToeBase
                {
                    OFFSET -0.000000 -11.507608 26.556021
                    CHANNELS 3 Zrotation Xrotation Yrotation
                    End Site
                    {
                        OFFSET -0.000000 0.000000 7.081605
                    }
                }
            }
        }
    }
    JOINT RightUpLeg
    {
        OFFSET -17.704014 0.000000 0.000000
        CHANNELS 3 Zrotation Xrotation Yrotation
        JOINT RightLeg
        {
            OFFSET -0.000000 -81.181816 0.000000
            CHANNELS 3 Zrotation Xrotation Yrotation
            JOINT RightFoot
            {
                OFFSET -0.000000 -62.821102 0.000000
                CHANNELS 3 Zrotation Xrotation Yrotation
                JOINT RightToeBase
                {
                    OFFSET -0.000000 -11.507608 26.556021
                    CHANNELS 3 Zrotation Xrotation Yrotation
                    End Site
                    {
                        OFFSET -0.000000 0.000000 7.081605
                    }
                }
            }
        }
    }
}
MOTION
Frames:    5
Frame Time:    0.008333
29.624924    143.864685    50.591564    4.163043    2.881624    -64.629219    1.271738    1.815735    1.028767    0.008313    -1.261493    0.350039    18.381407    12.196091    19.439262    -16.422651    -1.103136    17.125074    13.335601    -0.375702    -11.187808    -3.774388    -7.768077    -2.540395    6.301103    -6.022703    -89.996399    -2.533567    0.804080    -23.399803    -8.872297    -0.412079    -8.609800    34.393383    -26.621578    44.886623    13.312923    -24.900730    111.622307    24.870802    -35.194824    34.935226    39.072662    -23.160645    32.743069    -35.787807    46.375851    10.049844    2.866277    -16.343397    44.754387    0.000000    0.000000    0.000000    -31.884760    -15.909613    -17.133730    3.908069    34.195915    -5.692446    20.284945    -9.263649    8.181931    0.000000    0.000000    0.000000    
29.679642    143.862656    50.572754    4.148105    2.874916    -64.658005    1.248296    1.808218    0.959910    -0.031439    -1.223774    0.326472    18.492250    12.147792    19.473753    -16.439262    -1.023612    17.157387    13.359464    -0.327855    -11.341853    -3.641092    -8.159128    -3.219336    6.229895    -5.786275    -89.553879    -2.457429    0.907582    -23.463015    -8.800495    -0.443166    -8.610077    34.368656    -26.678461    44.817284    13.396744    -24.776882    111.651360    24.893948    -35.195480    34.914974    39.075195    -23.151793    32.757545    -35.778156    46.377480    10.037758    2.868505    -16.342155    44.768723    0.000000    0.000000    0.000000    -31.891567    -15.940280    -17.105259    3.930736    34.200180    -5.702834    20.179115    -9.209731    8.251595    0.000000    0.000000    0.000000    
29.738623    143.859879    50.553322    4.139371    2.869194    -64.688133    1.223392    1.788001    0.896630    -0.073702    -1.179564    0.304774    18.593824    12.148770    19.478920    -16.467999    -1.018232    17.155495    13.401438    -0.266549    -11.473879    -3.517828    -8.561343    -3.944295    6.137612    -5.521926    -89.115898    -2.584986    1.060332    -23.427473    -8.713427    -0.469602    -8.636395    34.291229    -26.663902    44.751846    13.418066    -24.757010    111.643639    24.901875    -35.185719    34.986462    39.077271    -23.148901    32.761086    -35.771397    46.384289    10.006449    2.860916    -16.352715    44.797436    0.000000    0.000000    0.000000    -31.898481    -15.976161    -17.083317    3.945027    34.210571    -5.712376    20.256573    -9.206805    8.187643    0.000000    0.000000    0.000000    
29.790842    143.854874    50.535988    4.118167    2.855778    -64.718369    1.180182    1.784860    0.825089    -0.078168    -1.141971    0.280705    18.676010    12.160442    19.492849    -16.519026    -1.016385    17.161716    13.415008    -0.158306    -11.582419    -3.425897    -8.928026    -4.678131    6.070491    -5.384140    -88.673393    -2.470393    1.058452    -23.258492    -8.657351    -0.472648    -8.668653    34.211086    -26.603018    44.709286    13.391902    -24.824375    111.628281    24.962086    -35.182789    35.034405    39.074455    -23.128927    32.768833    -35.766270    46.384041    10.015129    2.873509    -16.340410    44.794571    0.000000    0.000000    0.000000    -31.908319    -16.000998    -17.050220    3.966308    34.220551    -5.707724    20.164869    -9.154539    8.235720    0.000000    0.000000    0.000000    
29.844194    143.848236    50.516884    4.095034    2.845572    -64.749832    1.136184    1.789778    0.754786    -0.056069    -1.116620    0.257209    18.719929    12.184999    19.512966    -16.562893    -1.023645    17.177998    13.384027    -0.057343    -11.712584    -3.299687    -9.242204    -5.358424    6.050514    -5.291395    -88.245308    -2.427891    1.071216    -22.906153    -8.633683    -0.478225    -8.670897    34.178291    -26.573584    44.685562    13.379992    -24.869839    111.633057    25.027729    -35.195232    35.020153    39.082001    -23.106718    32.763081    -35.783390    46.372761    10.043447    2.885689    -16.329046    44.787941    0.000000    0.000000    0.000000    -31.912271    -16.024677    -17.010376    3.994255    34.230648    -5.735661    20.155256    -9.132685    8.235578    0.000000    0.000000    0.000000    
